<mxfile host="app.diagrams.net" agent="Mozilla/5.0 (Windows NT 10.0; Win64; x64) AppleWebKit/537.36 (KHTML, like Gecko) Chrome/136.0.0.0 Safari/537.36 Edg/136.0.0.0" version="27.1.0">
  <diagram name="Trang-1" id="yttvyBKOheeJffDyI6Ds">
    <mxGraphModel dx="1213" dy="625" grid="1" gridSize="10" guides="1" tooltips="1" connect="1" arrows="1" fold="1" page="1" pageScale="1" pageWidth="827" pageHeight="1169" math="0" shadow="0">
      <root>
        <mxCell id="0" />
        <mxCell id="1" parent="0" />
        <mxCell id="7NIyb6q8OyhzYnS1mHkU-1" value=":User" style="shape=umlActor;verticalLabelPosition=bottom;verticalAlign=top;html=1;outlineConnect=0;" parent="1" vertex="1">
          <mxGeometry x="400" y="206.25" width="30" height="60" as="geometry" />
        </mxCell>
        <mxCell id="7NIyb6q8OyhzYnS1mHkU-2" value="" style="endArrow=none;dashed=1;html=1;rounded=0;" parent="1" edge="1">
          <mxGeometry width="50" height="50" relative="1" as="geometry">
            <mxPoint x="415" y="637.5" as="sourcePoint" />
            <mxPoint x="415" y="297.5" as="targetPoint" />
          </mxGeometry>
        </mxCell>
        <mxCell id="7NIyb6q8OyhzYnS1mHkU-3" value="" style="shape=umlBoundary;whiteSpace=wrap;html=1;" parent="1" vertex="1">
          <mxGeometry x="544.05" y="206.25" width="90" height="65" as="geometry" />
        </mxCell>
        <mxCell id="7NIyb6q8OyhzYnS1mHkU-4" value="" style="ellipse;shape=umlControl;whiteSpace=wrap;html=1;" parent="1" vertex="1">
          <mxGeometry x="693" y="200" width="81" height="72.5" as="geometry" />
        </mxCell>
        <mxCell id="7NIyb6q8OyhzYnS1mHkU-5" value="" style="ellipse;shape=umlEntity;whiteSpace=wrap;html=1;" parent="1" vertex="1">
          <mxGeometry x="870" y="203.75" width="80" height="65" as="geometry" />
        </mxCell>
        <mxCell id="7NIyb6q8OyhzYnS1mHkU-6" value="" style="endArrow=none;dashed=1;html=1;rounded=0;" parent="1" source="7NIyb6q8OyhzYnS1mHkU-14" edge="1">
          <mxGeometry width="50" height="50" relative="1" as="geometry">
            <mxPoint x="588.81" y="636.25" as="sourcePoint" />
            <mxPoint x="589.05" y="296.25" as="targetPoint" />
          </mxGeometry>
        </mxCell>
        <mxCell id="7NIyb6q8OyhzYnS1mHkU-7" value="" style="endArrow=none;dashed=1;html=1;rounded=0;" parent="1" source="7NIyb6q8OyhzYnS1mHkU-16" edge="1">
          <mxGeometry width="50" height="50" relative="1" as="geometry">
            <mxPoint x="733.5799999999999" y="637.5" as="sourcePoint" />
            <mxPoint x="734" y="297.5" as="targetPoint" />
          </mxGeometry>
        </mxCell>
        <mxCell id="7NIyb6q8OyhzYnS1mHkU-8" value="" style="endArrow=none;dashed=1;html=1;rounded=0;" parent="1" source="7NIyb6q8OyhzYnS1mHkU-21" edge="1">
          <mxGeometry width="50" height="50" relative="1" as="geometry">
            <mxPoint x="910" y="637.5" as="sourcePoint" />
            <mxPoint x="910" y="297.5" as="targetPoint" />
          </mxGeometry>
        </mxCell>
        <mxCell id="7NIyb6q8OyhzYnS1mHkU-9" value="&lt;font style=&quot;font-size: 10px;&quot;&gt;1. Nhấn nút đổi mật khẩu&lt;/font&gt;" style="html=1;verticalAlign=bottom;startArrow=none;startFill=0;endArrow=open;curved=0;rounded=0;endFill=0;" parent="1" edge="1">
          <mxGeometry width="60" relative="1" as="geometry">
            <mxPoint x="420" y="327.5" as="sourcePoint" />
            <mxPoint x="590" y="330" as="targetPoint" />
          </mxGeometry>
        </mxCell>
        <mxCell id="7NIyb6q8OyhzYnS1mHkU-10" value="" style="html=1;points=[[0,0,0,0,5],[0,1,0,0,-5],[1,0,0,0,5],[1,1,0,0,-5]];perimeter=orthogonalPerimeter;outlineConnect=0;targetShapes=umlLifeline;portConstraint=eastwest;newEdgeStyle={&quot;curved&quot;:0,&quot;rounded&quot;:0};" parent="1" vertex="1">
          <mxGeometry x="410" y="320" width="10" height="150" as="geometry" />
        </mxCell>
        <mxCell id="7NIyb6q8OyhzYnS1mHkU-11" value="" style="html=1;verticalAlign=bottom;startArrow=none;startFill=0;endArrow=block;curved=0;rounded=0;endFill=1;" parent="1" source="7NIyb6q8OyhzYnS1mHkU-14" edge="1">
          <mxGeometry width="60" relative="1" as="geometry">
            <mxPoint x="580" y="412.16" as="sourcePoint" />
            <mxPoint x="730" y="420" as="targetPoint" />
          </mxGeometry>
        </mxCell>
        <mxCell id="7NIyb6q8OyhzYnS1mHkU-12" value="&lt;span style=&quot;font-size: 10px;&quot;&gt;5.changePassword()&lt;/span&gt;" style="text;html=1;align=center;verticalAlign=middle;resizable=0;points=[];autosize=1;strokeColor=none;fillColor=none;" parent="1" vertex="1">
          <mxGeometry x="600" y="397.5" width="120" height="30" as="geometry" />
        </mxCell>
        <mxCell id="7NIyb6q8OyhzYnS1mHkU-13" value="" style="endArrow=none;dashed=1;html=1;rounded=0;" parent="1" target="7NIyb6q8OyhzYnS1mHkU-14" edge="1">
          <mxGeometry width="50" height="50" relative="1" as="geometry">
            <mxPoint x="588.81" y="636.25" as="sourcePoint" />
            <mxPoint x="588.81" y="286.25" as="targetPoint" />
          </mxGeometry>
        </mxCell>
        <mxCell id="7NIyb6q8OyhzYnS1mHkU-14" value="" style="html=1;points=[[0,0,0,0,5],[0,1,0,0,-5],[1,0,0,0,5],[1,1,0,0,-5]];perimeter=orthogonalPerimeter;outlineConnect=0;targetShapes=umlLifeline;portConstraint=eastwest;newEdgeStyle={&quot;curved&quot;:0,&quot;rounded&quot;:0};" parent="1" vertex="1">
          <mxGeometry x="584.05" y="410" width="10" height="56.25" as="geometry" />
        </mxCell>
        <mxCell id="7NIyb6q8OyhzYnS1mHkU-15" value="" style="endArrow=none;dashed=1;html=1;rounded=0;" parent="1" target="7NIyb6q8OyhzYnS1mHkU-16" edge="1">
          <mxGeometry width="50" height="50" relative="1" as="geometry">
            <mxPoint x="733.5799999999999" y="637.5" as="sourcePoint" />
            <mxPoint x="733.5799999999999" y="287.5" as="targetPoint" />
          </mxGeometry>
        </mxCell>
        <mxCell id="7NIyb6q8OyhzYnS1mHkU-16" value="" style="html=1;points=[[0,0,0,0,5],[0,1,0,0,-5],[1,0,0,0,5],[1,1,0,0,-5]];perimeter=orthogonalPerimeter;outlineConnect=0;targetShapes=umlLifeline;portConstraint=eastwest;newEdgeStyle={&quot;curved&quot;:0,&quot;rounded&quot;:0};" parent="1" vertex="1">
          <mxGeometry x="729" y="420" width="10" height="37.5" as="geometry" />
        </mxCell>
        <mxCell id="7NIyb6q8OyhzYnS1mHkU-17" value="" style="html=1;verticalAlign=bottom;startArrow=none;startFill=0;endArrow=block;curved=0;rounded=0;endFill=1;" parent="1" target="7NIyb6q8OyhzYnS1mHkU-21" edge="1">
          <mxGeometry width="60" relative="1" as="geometry">
            <mxPoint x="739" y="430" as="sourcePoint" />
            <mxPoint x="910" y="430" as="targetPoint" />
          </mxGeometry>
        </mxCell>
        <mxCell id="7NIyb6q8OyhzYnS1mHkU-18" value="&lt;span style=&quot;font-size: 10px;&quot;&gt;[Thông tin hợp lệ]6.updateInfor()&lt;/span&gt;" style="text;html=1;align=center;verticalAlign=middle;resizable=0;points=[];autosize=1;strokeColor=none;fillColor=none;" parent="1" vertex="1">
          <mxGeometry x="734" y="397.5" width="170" height="30" as="geometry" />
        </mxCell>
        <mxCell id="7NIyb6q8OyhzYnS1mHkU-19" value="&lt;font style=&quot;font-size: 10px;&quot;&gt;7. thông báo&lt;/font&gt;" style="html=1;verticalAlign=bottom;endArrow=open;dashed=1;endSize=8;curved=0;rounded=0;" parent="1" edge="1">
          <mxGeometry x="-0.0588" relative="1" as="geometry">
            <mxPoint x="909" y="450" as="sourcePoint" />
            <mxPoint x="739" y="450" as="targetPoint" />
            <mxPoint as="offset" />
          </mxGeometry>
        </mxCell>
        <mxCell id="7NIyb6q8OyhzYnS1mHkU-20" value="" style="endArrow=none;dashed=1;html=1;rounded=0;" parent="1" target="7NIyb6q8OyhzYnS1mHkU-21" edge="1">
          <mxGeometry width="50" height="50" relative="1" as="geometry">
            <mxPoint x="910" y="637.5" as="sourcePoint" />
            <mxPoint x="910" y="287.5" as="targetPoint" />
          </mxGeometry>
        </mxCell>
        <mxCell id="7NIyb6q8OyhzYnS1mHkU-21" value="" style="html=1;points=[[0,0,0,0,5],[0,1,0,0,-5],[1,0,0,0,5],[1,1,0,0,-5]];perimeter=orthogonalPerimeter;outlineConnect=0;targetShapes=umlLifeline;portConstraint=eastwest;newEdgeStyle={&quot;curved&quot;:0,&quot;rounded&quot;:0};" parent="1" vertex="1">
          <mxGeometry x="905" y="430" width="10" height="20" as="geometry" />
        </mxCell>
        <mxCell id="7NIyb6q8OyhzYnS1mHkU-22" value="" style="html=1;verticalAlign=bottom;endArrow=open;dashed=1;endSize=8;curved=0;rounded=0;entryX=1.006;entryY=0.813;entryDx=0;entryDy=0;entryPerimeter=0;" parent="1" target="7NIyb6q8OyhzYnS1mHkU-14" edge="1">
          <mxGeometry x="0.6" y="43" relative="1" as="geometry">
            <mxPoint x="730" y="456.81" as="sourcePoint" />
            <mxPoint x="600" y="456.81" as="targetPoint" />
            <mxPoint as="offset" />
          </mxGeometry>
        </mxCell>
        <mxCell id="7NIyb6q8OyhzYnS1mHkU-23" value="&lt;span style=&quot;font-size: 10px;&quot;&gt;9. thông báo&lt;/span&gt;" style="html=1;verticalAlign=bottom;endArrow=open;dashed=1;endSize=8;curved=0;rounded=0;entryX=1;entryY=1;entryDx=0;entryDy=-5;entryPerimeter=0;" parent="1" source="7NIyb6q8OyhzYnS1mHkU-14" target="7NIyb6q8OyhzYnS1mHkU-10" edge="1">
          <mxGeometry relative="1" as="geometry">
            <mxPoint x="570" y="467.5" as="sourcePoint" />
            <mxPoint x="420" y="467.5" as="targetPoint" />
          </mxGeometry>
        </mxCell>
        <mxCell id="7NIyb6q8OyhzYnS1mHkU-24" value=":LoginView" style="text;html=1;align=center;verticalAlign=middle;whiteSpace=wrap;rounded=0;" parent="1" vertex="1">
          <mxGeometry x="564.05" y="267.5" width="60" height="30" as="geometry" />
        </mxCell>
        <mxCell id="7NIyb6q8OyhzYnS1mHkU-25" value=":C_AccountManagement" style="text;html=1;align=center;verticalAlign=middle;whiteSpace=wrap;rounded=0;" parent="1" vertex="1">
          <mxGeometry x="704" y="268.75" width="60" height="30" as="geometry" />
        </mxCell>
        <mxCell id="7NIyb6q8OyhzYnS1mHkU-26" value=":UserModel" style="text;html=1;align=center;verticalAlign=middle;whiteSpace=wrap;rounded=0;" parent="1" vertex="1">
          <mxGeometry x="880" y="268.75" width="60" height="30" as="geometry" />
        </mxCell>
        <mxCell id="7NIyb6q8OyhzYnS1mHkU-27" value="" style="html=1;verticalAlign=bottom;endArrow=open;dashed=1;endSize=8;curved=0;rounded=0;" parent="1" edge="1">
          <mxGeometry relative="1" as="geometry">
            <mxPoint x="590" y="352" as="sourcePoint" />
            <mxPoint x="420" y="352" as="targetPoint" />
          </mxGeometry>
        </mxCell>
        <mxCell id="7NIyb6q8OyhzYnS1mHkU-28" value="&lt;font style=&quot;font-size: 10px;&quot;&gt;2. Chuyển sang giao diện đổi mật khẩu&lt;/font&gt;" style="text;html=1;align=center;verticalAlign=middle;resizable=0;points=[];autosize=1;strokeColor=none;fillColor=none;" parent="1" vertex="1">
          <mxGeometry x="400" y="330" width="200" height="30" as="geometry" />
        </mxCell>
        <mxCell id="7NIyb6q8OyhzYnS1mHkU-29" value="" style="html=1;verticalAlign=bottom;startArrow=none;startFill=0;endArrow=open;curved=0;rounded=0;endFill=0;" parent="1" edge="1">
          <mxGeometry width="60" relative="1" as="geometry">
            <mxPoint x="420" y="380" as="sourcePoint" />
            <mxPoint x="590" y="380" as="targetPoint" />
            <Array as="points">
              <mxPoint x="492.5" y="380" />
            </Array>
          </mxGeometry>
        </mxCell>
        <mxCell id="7NIyb6q8OyhzYnS1mHkU-30" value="&lt;font style=&quot;font-size: 10px;&quot;&gt;3. Nhập đầy đủ thông tin&lt;/font&gt;" style="text;html=1;align=center;verticalAlign=middle;resizable=0;points=[];autosize=1;strokeColor=none;fillColor=none;" parent="1" vertex="1">
          <mxGeometry x="429.05" y="357.5" width="130" height="30" as="geometry" />
        </mxCell>
        <mxCell id="7NIyb6q8OyhzYnS1mHkU-31" value="" style="html=1;verticalAlign=bottom;startArrow=none;startFill=0;endArrow=open;curved=0;rounded=0;endFill=0;" parent="1" edge="1">
          <mxGeometry width="60" relative="1" as="geometry">
            <mxPoint x="420" y="410" as="sourcePoint" />
            <mxPoint x="584.0500000000002" y="410" as="targetPoint" />
          </mxGeometry>
        </mxCell>
        <mxCell id="7NIyb6q8OyhzYnS1mHkU-32" value="&lt;font style=&quot;font-size: 10px;&quot;&gt;4. Nhấn nút đổi mật khẩu&lt;/font&gt;" style="edgeLabel;html=1;align=center;verticalAlign=middle;resizable=0;points=[];" parent="7NIyb6q8OyhzYnS1mHkU-31" vertex="1" connectable="0">
          <mxGeometry x="-0.4361" y="3" relative="1" as="geometry">
            <mxPoint x="34" y="-9" as="offset" />
          </mxGeometry>
        </mxCell>
        <mxCell id="7NIyb6q8OyhzYnS1mHkU-33" value="&lt;font style=&quot;font-size: 10px;&quot;&gt;&amp;nbsp;8. thông báo&lt;/font&gt;" style="text;html=1;align=center;verticalAlign=middle;resizable=0;points=[];autosize=1;strokeColor=none;fillColor=none;" parent="1" vertex="1">
          <mxGeometry x="610" y="427.5" width="80" height="30" as="geometry" />
        </mxCell>
      </root>
    </mxGraphModel>
  </diagram>
</mxfile>
